<?xml version="1.0" encoding="utf-8"?>
<!-- Generator: Adobe Illustrator 24.2.3, SVG Export Plug-In . SVG Version: 6.00 Build 0)  -->
<svg version="1.1" id="Layer_1" xmlns="http://www.w3.org/2000/svg" xmlns:xlink="http://www.w3.org/1999/xlink" x="0px" y="0px"
	 viewBox="0 0 400.94 328.36" style="fill:#fff; enable-background:new 0 0 400.94 328.36;" xml:space="preserve">
<g>
	<path d="M280.83,43.69c-6.91,5.04-9.43,12.13-10.93,19.69c-0.65,3.29-0.69,6.69-1.17,10.01c-0.64,4.37-1.26,8.76-2.25,13.06
		c-0.61,2.64-2.75,4.27-5.3,5.13c-0.52,0.17-1.41-0.03-1.79-0.4c-0.34-0.34-0.49-1.27-0.27-1.73c1.83-3.8,2.98-7.79,3.54-11.96
		c0.45-3.33,1.01-6.64,1.3-9.99c0.38-4.4,0.57-8.81,0.78-13.22c0.09-1.78,0.01-3.57,0.01-5.84c-0.92,0.51-1.7,0.68-2.03,1.17
		c-3.97,5.91-7.73,11.94-9.66,18.88c-1.45,5.22-2.13,10.55-2.33,15.98c-0.18,4.92-1.33,9.68-4.47,13.7c-0.39,0.5-0.96,1-1.55,1.19
		c-0.82,0.25-2,0.57-2.52,0.18c-0.5-0.37-0.74-1.79-0.44-2.44c2.2-4.73,2.85-9.85,3.83-14.87c0.63-3.24,0.95-6.55,1.15-9.84
		c0.27-4.42,0.35-8.86,0.37-13.3c0.01-2.29-0.28-4.58-0.48-7.56c-1.6,1.27-2.98,2.18-4.14,3.3c-3.01,2.93-5.49,6.31-6.91,10.25
		c-1.2,3.34-2.27,6.84-2.64,10.35c-0.69,6.55-0.88,13.15-1.16,19.74c-0.09,2.02,0.14,4.06,0.35,6.07c0.22,2.17-0.25,3.93-2.35,4.99
		c-1.76,0.89-3.47,1.89-5.26,2.73c-1.92,0.89-2.89,0.3-2.62-1.74c0.21-1.63,0.93-3.18,1.38-4.78c1.25-4.47,2.66-8.91,3.64-13.44
		c0.88-4.09,1.55-8.27,1.8-12.44c0.31-5.12,0.14-10.28,0.08-15.42c-0.01-1.42-0.28-2.86-0.58-4.26c-0.09-0.42-0.62-0.93-1.04-1.04
		c-0.31-0.07-0.9,0.36-1.13,0.73c-2.81,4.44-5.76,8.81-8.29,13.41c-2.35,4.27-3.59,9-3.95,13.86c-0.4,5.39-0.41,10.81-0.8,16.2
		c-0.31,4.27-0.83,8.53-1.51,12.76c-0.25,1.54-1.09,3.05-1.94,4.4c-0.46,0.73-1.41,1.32-2.26,1.6c-0.75,0.25-1.79,0.22-2.46-0.14
		c-0.3-0.16-0.25-1.55,0.07-2.18c2.59-5.12,2.22-10.71,2.6-16.17c0.38-5.5,0.56-11.01,0.75-16.52c0.17-4.86,0.39-9.72,0.32-14.58
		c-0.03-2.3-0.63-4.61-1.11-6.89c-0.11-0.53-0.73-1.22-1.22-1.32c-0.39-0.08-1.12,0.51-1.41,0.98c-3.41,5.62-7.07,11.12-10.01,16.98
		c-1.39,2.77-1.73,6.23-1.88,9.41c-0.28,6,0.01,12.03-0.11,18.04c-0.11,5.21-0.28,10.42-0.76,15.61c-0.45,4.84-2.2,9.2-6.18,12.35
		c-0.05,0.04-0.08,0.1-0.14,0.12c-0.91,0.33-1.82,0.66-2.73,0.98c-0.05-0.97-0.4-2.04-0.1-2.88c1.87-5.31,2.46-10.79,2.22-16.36
		c-0.28-6.59-0.7-13.17-1.09-19.75c-0.21-3.62-0.36-7.24-0.75-10.84c-0.5-4.59-1.17-9.15-1.85-13.72c-0.12-0.77-0.65-1.48-1.03-2.3
		c-4.51,4.65-8.03,9.51-9.26,15.89c-1.07,5.56-1.93,11.1-2.13,16.76c-0.07,2.11-0.31,4.22-0.34,6.34c-0.05,4.35,0.13,8.7-0.05,13.04
		c-0.24,5.61,0.68,10.98,3.1,16.01c2,4.17,4.73,7.84,8.02,11.18c5,5.07,10.8,9,16.82,12.64c3.62,2.18,7.36,4.22,11.2,5.95
		c4.44,2,9.04,3.64,13.61,5.33c1.63,0.61,3.38,0.91,5.27,1.41c-5.32,4.08-10.44,7.92-15.47,11.89c-3.26,2.58-6.46,5.24-9.52,8.06
		c-3.84,3.54-7.81,7.02-11.14,11.01c-2.09,2.51-3.32,5.83-4.57,8.94c-1.66,4.14-3.21,8.36-4.34,12.67
		c-1.29,4.95-2.28,10.01-3.01,15.08c-0.75,5.18-1.04,10.42-1.52,15.63c-0.24,2.57-0.28,5.17-0.71,7.71
		c-0.27,1.57-0.78,3.29-1.73,4.53c-2.97,3.89-6.31,7.36-10.82,9.67c-5.57,2.86-10.94,6.11-16.38,9.23
		c-4.76,2.72-9.48,5.51-14.23,8.24c-5.33,3.05-10.67,6.08-16.02,9.08c-5.3,2.98-10.63,5.91-15.93,8.89
		c-5.63,3.16-11.24,6.37-16.88,9.51c-2.34,1.3-4.74,2.52-7.15,3.7c-0.56,0.27-1.3,0.41-1.91,0.32c-1.17-0.19-2-0.55-1.68-2.23
		c0.64-3.32,2.78-5.76,4.43-8.5c0.48-0.79,0.88-1.63,1.31-2.45c-0.12-0.14-0.24-0.28-0.36-0.42c-1.6,0.67-3.21,1.35-4.81,2.02
		c-2.14,0.9-4.25,1.91-6.45,2.63c-0.79,0.26-2.13,0.1-2.64-0.43c-0.47-0.48-0.48-1.88-0.13-2.59c0.96-1.91,2.18-3.69,3.36-5.49
		c1.64-2.5,3.49-4.86,4.96-7.46c2.4-4.26,5.94-7.1,10.29-9.1c4.43-2.03,8.85-4.07,13.28-6.12c5.36-2.49,10.79-4.85,16.06-7.52
		c5.79-2.93,11.61-5.86,17.08-9.33c4.27-2.71,7.37-6.83,10.02-11.15c5.48-8.94,8.86-18.71,11.38-28.82c1.1-4.4,2.4-8.76,3.17-13.21
		c0.8-4.63,1.11-9.35,1.56-14.04c0.22-2.29,0.46-4.6,0.34-6.88c-0.21-4.02-0.74-8.03-1.02-12.05c-0.09-1.25-0.7-1.46-1.71-1.56
		c-2.17-0.2-4.34-0.67-6.51-0.68c-4.75-0.01-9.22-1.39-13.77-2.41c-1.66-0.37-3.31-0.82-5.23-1.3c0.53,2.28,1.22,4.37,1.49,6.52
		c0.61,4.89,1.2,9.8,1.45,14.71c0.22,4.24,0.2,8.49,1.56,12.55c0.83,2.48,2.07,4.86,5.08,5.2c2.22,0.25,4.33-0.43,6.3-1.48
		c1.2-0.64,2.36-1.37,3.55-2.04c1.51-0.86,2.6-0.26,2.64,1.44c0.08,4.22-1.43,7.47-5.56,9.14c-5.94,2.41-11.67,2.74-17-1.58
		c-1.28,3.18-4.14,3.9-7.05,4.23c-2.3,0.26-4.71,0.37-6.97-0.03c-4.54-0.81-7.46-3.98-9.52-7.85c-2.33-4.36-3.55-9.07-4.16-14
		c-0.62-5.04-1.51-10.05-2.58-15.01c-0.43-1.99-1.4-3.99-2.61-5.62c-0.9-1.2-2.61-1.77-3.93-2.69c-3.31-2.3-6.79-4.4-9.84-7.01
		c-3.85-3.29-7.68-6.72-10.92-10.59c-4.29-5.13-8.18-10.63-11.89-16.2c-2.54-3.82-4.5-8.04-6.68-12.09
		c-0.86-1.6-2.29-2.39-3.88-1.82c-4.22,1.49-8.18,0.23-12.21-0.68c-4.75-1.06-9.17-2.94-13.36-5.37c-4.68-2.71-9.66-3.29-14.86-2.02
		c-2.08,0.51-3.56-0.53-4.62-1.89c-2.95-3.77-4.07-11.11-0.38-15.4c1.07-1.25,2.4-2.47,3.86-3.16c3.74-1.77,7.76-2.7,11.9-3.07
		c3.66-0.33,6.74-1.97,9.38-4.47c2.9-2.74,5.89-5.48,9.93-6.2c2.51-0.44,3.62-1.93,4.86-3.84c4.01-6.17,9.14-11.23,15.6-14.87
		c3.36-1.9,7.16-2.44,10.77-3.57c0.57-0.18,1.14-0.38,2.01-0.68c-1.42,5.81-3.78,11.07-6.44,16.57c2.05-0.81,3.77-1.62,5.57-2.17
		c2.51-0.76,5.04-1.72,7.62-1.89c2.94-0.19,5.93,0.34,8.88,0.65c1.68,0.18,3.34,0.55,5.16,0.86c-0.62,0.83-1.25,1.75-1.95,2.6
		c-4.06,4.89-8.69,9.24-13.98,12.69c-2.49,1.62-5.8,1.98-8.77,2.83c-0.95,0.27-2,0.2-2.98,0.4c-0.58,0.12-1.58,0.44-1.59,0.7
		c-0.04,0.76,0.1,1.77,0.59,2.27c1.26,1.28,2.66,2.47,4.16,3.45c3.94,2.56,7.84,5.21,11.99,7.38c2.15,1.13,4.76,1.7,7.2,1.85
		c4.69,0.29,9.39,0.19,13.97-1.35c5.58-1.87,10.24-4.97,13.99-9.48c1.5-1.8,2.93-3.66,4.47-5.42c2.27-2.59,4.42-5.34,6.97-7.64
		c6.01-5.4,12-10.86,18.4-15.76c8.82-6.74,18.64-11.88,28.82-16.29c4.64-2.01,9.36-3.92,14.18-5.44c8.01-2.52,16.06-4.94,24.22-6.91
		c5.91-1.43,12.01-2.16,18.04-3.05c5.73-0.84,11.47-1.62,17.23-2.17c3.97-0.38,7.97-0.37,11.96-0.47c5.04-0.13,10.08-0.22,15.12-0.3
		C275.8,43.66,278.13,43.69,280.83,43.69z M123.05,219.31c-2.81-6.68-5.62-13.36-8.43-20.04c-0.21-0.01-0.41-0.01-0.62-0.02
		c-0.46,4.43-1.15,8.84-1.26,13.28c-0.04,1.81,0.85,3.87,1.89,5.44C116.13,220.22,119.91,220.54,123.05,219.31z"/>
	<path d="M188.31,142.22c0.22-0.79,0.19-1.62,0.58-1.96c3.17-2.78,6.36-5.53,9.67-8.15c1.22-0.96,2.54-0.71,3.66,0.59
		c3.74,4.31,8.16,7.88,12.72,11.29c6.79,5.06,14.28,8.87,22.03,12.18c2.61,1.11,5.37,1.88,8.3,2.89c-2.52,2.11-5.02,4.24-7.58,6.29
		c-0.21,0.17-0.88-0.02-1.21-0.24c-5.36-3.6-10.52-7.52-16.08-10.77c-5.81-3.39-11.96-6.2-18.02-9.16
		C198.06,143.06,193.42,142.11,188.31,142.22z"/>
	<path d="M274.93,132.96c-2.3,1.78-4.76,3.72-7.3,5.56c-0.31,0.22-1.17,0.08-1.53-0.21c-4.56-3.67-8.91-7.62-13.64-11.06
		c-4.56-3.31-9.39-6.31-14.31-9.06c-2.27-1.26-5.07-1.54-7.6-2.37c-0.86-0.28-1.63-0.86-2.44-1.3c0.39-0.64,0.67-1.38,1.19-1.89
		c2.21-2.13,4.66-3.9,7.65-4.87c1.53-0.5,2.57,0.22,3.42,1.21c4.02,4.67,8.4,8.93,13.25,12.75c4.36,3.42,9.05,6.26,14.05,8.57
		C270.03,131.4,272.57,132.11,274.93,132.96z"/>
	<path d="M260.22,145.59c-1.75,1.59-3.55,3.3-5.43,4.91c-2.15,1.84-2.13,1.74-4.34-0.33c-6.9-6.47-14.25-12.4-22.42-17.13
		c-4.26-2.46-9.08-4.03-13.76-5.65c-1.7-0.59-3.76-0.15-5.65-0.2c-0.28-0.01-0.55-0.12-1.07-0.25c0.31-0.56,0.45-1.12,0.81-1.39
		c2.14-1.62,4.22-3.4,6.54-4.71c3.34-1.88,4.54-1.8,7.34,0.73c4.04,3.66,7.89,7.55,12.16,10.92c3.02,2.39,6.47,4.31,9.94,6.02
		C249.49,141.05,254.82,143.21,260.22,145.59z"/>
	<path d="M281.42,43.87c3.97,0,7.87,0,11.76,0c-1.29,2.14-2.61,4.31-3.93,6.49c-2.54,4.2-3.96,8.82-4.71,13.6
		c-0.78,4.98-1.17,10.01-1.92,14.99c-0.26,1.73-0.98,3.42-1.66,5.06c-0.46,1.1-3.43,2.42-4.43,2c-0.92-0.38-1.81-0.87-1.26-2.28
		c1.07-2.77,2.26-5.55,2.89-8.43c0.89-4.02,1.51-8.13,1.9-12.23C280.67,56.7,280.98,50.3,281.42,43.87z"/>
	<path d="M296.31,44.29c3.19,0,6.25,0,9.53,0c-1.21,3.08-2.38,5.87-3.4,8.7c-2.19,6.14-3.35,12.47-3.29,19.02
		c0.04,4.1-2.23,6.98-6.17,8.3c-1.65,0.55-2.06-0.61-2.18-1.71c-0.11-1.11-0.07-2.37,0.37-3.36c2.04-4.59,2.81-9.5,3.54-14.38
		c0.77-5.16,1.04-10.4,1.53-15.6C296.27,44.91,296.29,44.55,296.31,44.29z"/>
	<path d="M299.99,115.7c-2.45,1.66-4.47,3.03-6.73,4.56c-1.55-1.62-3.11-3.39-4.82-5.01c-5.47-5.18-10.82-10.52-17.05-14.8
		c-2.13-1.46-4.6-2.42-6.89-3.65c-0.59-0.32-1.36-0.73-1.51-1.25c-0.11-0.37,0.57-1.23,1.09-1.48c2.23-1.1,4.49-2.22,6.84-3.02
		c1.52-0.52,2.87,0.09,3.7,1.69c3.72,7.14,9.34,12.62,15.46,17.68C292.92,112.75,295.88,114.76,299.99,115.7z"/>
	<path d="M288.09,123.68c-2.23,1.54-4.42,3.06-6.59,4.57c-2.93-2.62-5.72-5.32-8.72-7.75c-4.89-3.97-9.78-7.96-14.94-11.55
		c-2.84-1.98-6.21-3.23-9.4-4.68c-1.59-0.72-1.77-0.98-0.55-2.17c1.85-1.79,4.12-2.96,6.59-3.36c2.15-0.35,3.3,1.53,4.28,3.07
		c2.02,3.18,4.49,5.88,7.31,8.39c5.72,5.1,12.22,8.83,19.15,11.93C286.2,122.55,287.1,123.13,288.09,123.68z"/>
	<path d="M279.25,89.18c2.8-3.27,8.72-4.43,11.31-0.27c1.67,2.67,4.34,4.7,6.48,7.08c3.11,3.47,6.83,6.16,10.8,8.52
		c1.61,0.95,3.4,1.6,5.21,2.42c-2.68,1.81-5.26,3.62-7.95,5.28c-0.36,0.22-1.51-0.19-1.82-0.64c-4.1-5.93-8.74-11.41-14-16.29
		c-2.09-1.94-4.87-3.16-7.35-4.68C281.12,90.12,280.27,89.72,279.25,89.18z"/>
	<path d="M325.96,97.93c-2.66,1.87-5.19,3.66-7.93,5.59c-2.05-2.21-4.05-4.51-6.21-6.66c-2.53-2.52-5.06-5.1-7.86-7.31
		c-2.36-1.86-5.11-3.24-7.69-4.83c-1.02-0.63-1.25-1.26-0.08-2.01c2.16-1.37,4.53-0.88,6.85-0.84c2.09,0.04,3.43,1.52,4.61,2.8
		c5.09,5.54,11.19,9.58,17.95,12.75C325.73,97.5,325.8,97.71,325.96,97.93z"/>
	<path d="M338.95,88.9c-2.46,1.74-4.72,3.33-6.68,4.71c-4.43-3.62-8.61-7.28-13.07-10.55c-2.08-1.53-4.71-2.27-7.06-3.46
		c-0.61-0.31-1.49-0.93-1.49-1.4c0-0.56,0.72-1.28,1.31-1.65c2.54-1.6,5.49-1.77,8.23-1.21c1.51,0.31,2.82,1.94,4.05,3.14
		c3.72,3.64,7.65,6.97,12.32,9.34C337.23,88.17,337.94,88.45,338.95,88.9z"/>
	<path d="M317.96,43.73c-0.87,2.51-1.86,4.93-2.55,7.44c-0.79,2.87-1.49,5.78-1.91,8.72c-0.45,3.22-0.52,6.49-0.79,9.73
		c-0.22,2.63-4.38,6.15-6.99,5.87c-0.89-0.1-1.24-0.68-0.94-1.7c1.15-3.88,2.37-7.75,3.26-11.69c0.8-3.55,1.23-7.19,1.74-10.8
		c0.24-1.73,0.26-3.49,0.39-5.23c0.1-1.32,0.58-2.09,2.13-2.05C314.16,44.06,316.02,43.84,317.96,43.73z"/>
	<path d="M324.14,42.83c2.63-0.49,5.03-0.93,7.57-1.41c-0.97,3.66-2.02,7.11-2.79,10.61c-0.67,3.09-1.03,6.25-1.54,9.38
		c-0.26,1.59-0.39,3.22-0.87,4.75c-0.21,0.67-1.03,1.3-1.73,1.64c-1.22,0.6-2.54,1.01-3.85,1.44c-1.38,0.45-2.07-0.16-1.67-1.6
		c0.93-3.32,1.89-6.64,3.01-9.9c1.57-4.58,1.99-9.28,1.8-14.07C324.09,43.38,324.13,43.09,324.14,42.83z"/>
	<path d="M351.51,79.74c-2.03,1.55-3.91,3.02-5.82,4.45c-0.9,0.67-1.64,0.61-2.49-0.29c-3.31-3.53-7-6.64-11.37-8.79
		c-1.69-0.83-3.64-1.13-5.44-1.76c-0.56-0.2-1.26-0.6-1.46-1.08c-0.13-0.32,0.39-1.12,0.82-1.43c3.26-2.32,8.06-3.28,11.47,0.35
		C341.09,75.3,345.92,78.12,351.51,79.74z"/>
	<path d="M377.44,58.83c-4.02-2.01-7.67-4.02-11.48-5.66c-1.7-0.73-3.74-0.67-5.59-1.09c-0.76-0.17-1.44-0.67-2.15-1.02
		c0.37-0.58,0.62-1.34,1.15-1.72c1.15-0.85,2.36-1.75,3.69-2.16c0.86-0.26,2.04,0.17,2.98,0.53c2.71,1.03,5.33,2.34,8.08,3.24
		c2.48,0.81,5.07,1.32,7.65,1.72c0.72,0.11,1.58-0.64,2.89-1.23C381.9,54.26,379.49,56.72,377.44,58.83z"/>
	<path d="M373.96,61.96c-2.19,1.82-3.93,3.34-5.79,4.73c-0.33,0.25-1.18,0.06-1.65-0.19c-4.67-2.45-9.08-5.45-14.31-6.72
		c-0.46-0.11-0.94-0.16-1.37-0.35c-0.62-0.27-1.43-0.51-1.71-1.02c-0.19-0.35,0.21-1.38,0.63-1.65c1.48-0.92,3.03-1.87,4.68-2.35
		c0.77-0.22,2.02,0.39,2.76,0.99c4.19,3.43,8.86,5.67,14.29,6.24C372.12,61.71,372.73,61.8,373.96,61.96z"/>
	<path d="M342.82,38.29c-0.27,2.38-0.45,4.65-0.81,6.89c-0.53,3.36-1.25,6.69-1.77,10.05c-0.49,3.18-2.45,5.37-4.79,7.26
		c-0.9,0.73-1.56,0.03-1.43-0.96c0.28-2.25,0.72-4.48,1.08-6.72c0.74-4.6,1.44-9.21,2.22-13.8c0.08-0.48,0.47-1.14,0.88-1.29
		C339.62,39.16,341.12,38.79,342.82,38.29z"/>
	<path d="M362.53,71.22c-1.43,1.14-3.07,2.34-4.57,3.7c-0.81,0.73-1.26,0.69-2.12,0.02c-3.21-2.49-6.41-5.01-9.83-7.19
		c-1.53-0.97-3.57-1.12-5.35-1.73c-0.68-0.23-1.26-0.74-1.88-1.12c0.38-0.55,0.64-1.25,1.14-1.64c2.69-2.08,5.6-1.85,8.37,0.05
		c2.75,1.88,5.39,3.92,8.26,5.59C358.36,69.96,360.48,70.45,362.53,71.22z"/>
	<path d="M367.25,44.8c1.57-3.46,4.62-4.64,8.03-3.78c4.95,1.25,9.96,2.31,15.12,1.21c0.29-0.06,0.6-0.01,1.31-0.01
		c-1.83,2.47-3.49,4.7-5.21,7.01c-5.39-2.86-11.13-4.01-17.19-3.76C368.64,45.51,367.96,45.05,367.25,44.8z"/>
	<path d="M396.35,33.56c-0.29,0.73-0.38,1.39-0.75,1.79c-1.23,1.33-0.98,4.09-3.3,4.19c-1.78,0.08-3.58-0.78-5.4-1.08
		c-2.54-0.41-5.11-0.61-7.65-1.05c-0.83-0.15-1.58-0.77-2.37-1.18c0.49-0.69,0.84-1.57,1.49-2.04c1.54-1.13,3.33-1.29,5.24-1.17
		C387.8,33.3,391.99,33.39,396.35,33.56z"/>
	<path d="M345.39,56c-0.02-1.24-0.28-2.28-0.01-3.17c1.45-4.89,2.32-9.86,2.59-14.95c0.03-0.64,0.55-1.51,1.09-1.81
		c1.18-0.65,2.53-1,4.06-1.56c-0.28,1.52-0.5,2.91-0.81,4.28c-1.03,4.59-2.1,9.18-3.15,13.77C348.75,54.32,347.49,55.18,345.39,56z"
		/>
	<path d="M362.7,30.09c-0.47,3.29-0.81,6.38-1.37,9.43c-0.41,2.27-0.98,4.54-1.72,6.72c-0.41,1.2-1.19,2.35-2.06,3.28
		c-0.48,0.51-1.5,0.52-2.28,0.76c-0.08-0.84-0.4-1.76-0.18-2.52c0.34-1.19,1.28-2.22,1.56-3.41c0.74-3.18,1.41-6.39,1.85-9.63
		C358.94,31.5,358.98,31.27,362.7,30.09z"/>
	<path d="M399.99,23.73c-0.68,2.13-1.46,4.59-2.18,6.87c-4.35-0.21-8.49-0.42-12.64-0.62c-0.24-1.41,0.46-2.76,1.92-3.13
		c2.3-0.59,4.65-0.95,6.96-1.5C396.03,24.88,397.99,24.28,399.99,23.73z"/>
	<path d="M371.51,24.59c-0.48,2.1-0.91,3.88-1.28,5.68c-0.5,2.48-0.7,5.06-1.5,7.44c-0.61,1.83-1.95,3.42-2.97,5.11
		c-0.45-0.3-1.26-0.58-1.27-0.89c-0.02-0.87,0.29-1.74,0.46-2.62c0.31-1.63,0.71-3.25,0.91-4.89c0.23-1.91,0.21-3.85,0.43-5.76
		c0.06-0.52,0.47-1.14,0.91-1.45C368.46,26.34,369.82,25.6,371.51,24.59z"/>
	<path d="M386.57,12.75c-0.91,5.83-0.64,12.01-5.63,16.61c0-0.74-0.1-1.49,0.02-2.21c0.57-3.53,1.18-7.06,1.8-10.58
		c0.06-0.33,0.18-0.73,0.42-0.94C384.27,14.64,385.43,13.71,386.57,12.75z"/>
	<path d="M373.52,34.3c0.29-3.52,0.27-7.1,0.99-10.53c0.32-1.53,2.1-2.76,3.22-4.13c0.3,0.14,0.59,0.27,0.89,0.41
		c-0.51,3.21-0.92,6.44-1.56,9.63c-0.28,1.36-0.96,2.67-1.61,3.91c-0.26,0.5-0.94,0.78-1.43,1.17
		C373.85,34.6,373.68,34.45,373.52,34.3z"/>
	<path d="M393.97,5.05c-0.53,1.44-0.54,2.93-1.53,4.37c-0.85,1.24-0.61,3.38-0.49,5.1c0.16,2.42-1.03,4.07-2.59,5.6
		c-0.22,0.21-0.55,0.3-0.83,0.45c-0.12-0.28-0.36-0.57-0.34-0.84c0.23-2.57,0.54-5.12,0.77-7.69c0.29-3.35,3.08-4.85,5.07-6.95
		L393.97,5.05z"/>
	<path d="M394.02,5.1c1.25-1.67,2.51-3.34,3.83-5.1c1.11,1.3,1.25,2.27,0.36,3.66c-1.67,2.62-2.34,5.6-2.3,8.74
		c0.01,0.96-0.27,1.93-0.41,2.9c-0.29-0.01-0.58-0.02-0.87-0.03c0-1.62-0.14-3.26,0.04-4.87c0.21-1.87,0.4-3.67-0.68-5.35
		C393.97,5.05,394.02,5.1,394.02,5.1z"/>
	<path d="M391.22,24.18c-1.13-2.03,0.29-4.93,2.54-5.38c2.37-0.48,4.76-0.85,7.13-1.27c0.09,1.72-0.49,2.87-2.55,3
		c-2.6,0.16-4.77,1.29-6.44,3.35C391.78,24.04,391.49,24.07,391.22,24.18z"/>
	<path d="M400.86,11.42c0.44,2.74-0.88,4.43-3.35,4.34c-0.26-0.01-0.76-0.75-0.69-0.86C397.81,13.35,398.89,11.88,400.86,11.42z"/>
	<path d="M400.2,4.38c-0.19,1.25-0.37,2.5-0.56,3.76c-0.29-0.04-0.58-0.09-0.88-0.13c0.18-1.25,0.36-2.51,0.54-3.76
		C399.6,4.29,399.9,4.34,400.2,4.38z"/>
</g>
</svg>
