<?xml version="1.0" encoding="utf-8"?>
<!-- Generator: Adobe Illustrator 25.0.1, SVG Export Plug-In . SVG Version: 6.00 Build 0)  -->
<svg version="1.1" id="Layer_1" xmlns="http://www.w3.org/2000/svg" xmlns:xlink="http://www.w3.org/1999/xlink" x="0px" y="0px"
	 viewBox="0 0 268.9 234" style="enable-background:new 0 0 268.9 234;" xml:space="preserve">
<style type="text/css">
	.st0{fill:#C6D77A;}
	.st1{fill:#6F6259;}
	.st2{fill:#00937B;}
	.st3{fill:#FFFFFF;}
</style>
<path class="st0" d="M126.1,47.1c0.2,0.2,3.4,3.4,8.3,8.3c4.9-4.9,8.1-8.1,8.3-8.3c0.4-0.4,7.2-7.9,19-13.9
	c7.5-3.7,17.2-7.1,28.5-7.9c-7.6-8.7-18.2-16.6-33-21.7c0,0-29.1-10.8-58.3,5.6c0,0-10.2,4.9-20,16.3c11.2,0.8,20.8,4.1,28.2,7.8
	C118.9,39.2,125.8,46.7,126.1,47.1"/>
<path class="st0" d="M70.1,196.7c-7.7-13.6-8.8-25-9.2-28.7c0-0.4-0.1-2-0.1-4.4c-0.1-2-0.1-3.9,0-5.7c-0.1-19.2-0.1-59.9-0.2-70.7
	c0-19,0.7-22.4,2.2-31.1c3.4-13.3,9.7-23.3,16.1-30.7c-11.5-0.8-24.6,1.1-38.8,7.9c0,0-28.2,12.9-37.2,45.2c0,0-10.1,28.9,7.7,58.8
	c5,7.3,6.9,10.2,20.4,23.5c6.9,6.9,31,31,45.7,45.6c-1.3-1.7-2.6-3.4-3.7-5.2C71.9,199.7,70.9,198.1,70.1,196.7"/>
<path class="st1" d="M60.6,87.2c0,10.8,0,51.4,0.2,70.7c0-0.3,0-0.7,0-1.1C62,136,71,122.2,74.3,117.7c0,0,2.2-3.4,8.3-9.8
	c12-12.4,38.4-39,51.9-52.5c-4.9-4.9-8.1-8.1-8.3-8.3c-0.4-0.4-7.2-7.9-19-13.9c-7.4-3.7-17-7-28.2-7.8
	c-6.4,7.4-12.7,17.4-16.1,30.7C61.2,64.8,60.5,68.2,60.6,87.2"/>
<path class="st0" d="M266,78.2c-9.1-32.2-37.3-45.1-37.3-45.1c-14-6.8-27.1-8.7-38.5-7.9c7.4,8.5,11.9,17.7,14.5,25.5
	c4.1,12.6,3.6,22.8,3.7,23.3c0,0.8,0.1,54.2-0.2,80.4c0.1,0.7,0.2,1.4,0.2,2.2c0.8,13.5-3.1,33.3-15.8,49.7
	c14.7-14.6,38.7-38.8,45.6-45.7c13.4-13.4,15.3-16.3,20.3-23.6C276.2,107.1,266,78.2,266,78.2"/>
<path class="st1" d="M142.7,47.1c-0.2,0.2-3.4,3.4-8.3,8.3c13.5,13.5,40,40,52,52.4c6.1,6.3,8.3,9.7,8.3,9.7
	c3.2,4.3,11.6,17.4,13.4,36.9c0.3-26.2,0.2-79.6,0.2-80.4c0-0.5,0.5-10.7-3.7-23.3c-2.6-7.9-7.1-17-14.5-25.5
	c-11.3,0.8-21.1,4.1-28.5,7.9C149.9,39.2,143,46.7,142.7,47.1"/>
<path class="st2" d="M186.4,107.8c-12-12.4-38.5-38.9-52-52.4C121,68.9,94.5,95.5,82.5,107.9c-6.1,6.3-8.3,9.8-8.3,9.8
	C71,122.2,62,136,60.7,156.8c0,0.3,0,0.7,0,1.1c0,2.2,0,4.1,0.1,5.7c0.6,11.3,4.1,25.1,12.2,37.7c1.4,2,2.9,4.1,4.6,6.1
	c5.9,5.8,10.1,10,10.7,10.4c0.9,0.7,2.3,1.9,4.3,3.2c0.8,0.5,1.6,1.1,2.4,1.6c0.5,0.3,0.9,0.6,1.4,0.9c1.6,1,3.3,1.9,5.1,2.8
	c2.3,1.2,4.7,2.2,7,3.1c0.1,0,0.2,0.1,0.3,0.1c2.3,0.9,4.6,1.6,6.9,2.2c0,0,0,0,0.1,0c0.1,0,0.2,0,0.3,0.1c1.6,0.4,3.2,0.7,4.8,1.1
	c1.1,0.2,2.2,0.4,3.4,0.6c0.3,0,0.6,0.1,0.9,0.1c2.2,0.3,4.5,0.5,6.8,0.6c1.2,0,2.4,0.1,3.6,0.1c0.4,0,0.8,0,1.2,0
	c21.1-0.8,38.9-11.1,49.4-21.3c0.1-0.1,0.1-0.1,0.2-0.2c1-1,2-2,2.8-3c13.8-15.6,17.2-31.7,18-37.3c0,0,0.9-4,1-12.8
	c0-1.6,0-3.3,0.1-5.1c-1.7-19.5-10.2-32.6-13.4-36.9C194.7,117.5,192.5,114.1,186.4,107.8"/>
<path class="st3" d="M159.3,138.5c7.2,6.7,11.7,16.2,11.7,26.8c0,9.5-3.6,18.1-9.6,24.6c-7.2,6.3-16.6,10.1-26.9,10.1
	c-10.3,0-19.7-3.8-26.9-10c-6-6.5-9.6-15.1-9.6-24.6c0-10.6,4.5-20.1,11.7-26.8c16-14.8,24.7-35.8,24.7-57.6
	C134.5,102.7,143.3,123.7,159.3,138.5"/>
</svg>
