<?xml version="1.0" encoding="utf-8"?>
<!-- Generator: Adobe Illustrator 25.0.1, SVG Export Plug-In . SVG Version: 6.00 Build 0)  -->
<svg version="1.1" id="Layer_1" xmlns="http://www.w3.org/2000/svg" xmlns:xlink="http://www.w3.org/1999/xlink" x="0px" y="0px"
	 viewBox="0 0 215.3 215.4" style="enable-background:new 0 0 215.3 215.4;" xml:space="preserve">
<path d="M43.3,21.2C18.3,39.8,1.7,68.9,0,101.9h12.7C14.4,73.3,28.8,48,50.4,31.7L43.3,21.2z M107.6,0c-20,0-38.7,5.5-54.7,15
	l7,10.5c14-8.2,30.3-12.9,47.7-12.9c52.4,0,95.1,42.6,95.1,95.1c0,52.4-42.6,95.1-95.1,95.1c-21.1,0-40.6-6.9-56.4-18.6l-9,9
	c18.2,13.9,40.8,22.2,65.4,22.2c59.4,0,107.7-48.3,107.7-107.7C215.3,48.3,167,0,107.6,0z M12.7,113.4H0c1.5,28.4,14,54,33.4,72.4
	l9-9C25.3,160.7,14.2,138.3,12.7,113.4z"/>
<g>
	<path d="M47.8,104.8c0-35.2,23.4-63.8,62.3-63.8s62.3,28.5,62.3,63.8c0,35-23.4,63.6-62.3,63.6S47.8,139.8,47.8,104.8z
		 M140.6,104.8c0-21.9-12.2-36.3-30.6-36.3c-18.2,0-30.4,14.5-30.4,36.3c0,21.7,12.2,36.1,30.4,36.1
		C128.4,140.9,140.6,126.5,140.6,104.8z"/>
</g>
</svg>
