<?xml version="1.0" encoding="utf-8"?>
<!-- Generator: Adobe Illustrator 24.1.2, SVG Export Plug-In . SVG Version: 6.00 Build 0)  -->
<svg version="1.1" id="Layer_1" xmlns="http://www.w3.org/2000/svg" xmlns:xlink="http://www.w3.org/1999/xlink" x="0px" y="0px"
	 viewBox="0 0 595.3 373.2" style="enable-background:new 0 0 595.3 373.2;" xml:space="preserve">
<g>
	<path d="M66.7,104.2l19.8-19.8c0,0,12.4,15.6,26.5,15.6c8.5,0,14.3-3.5,14.3-8.9c0-13.5-57.3-20.6-57.3-54.3
		c0-22.2,21.7-36.5,43.2-36.7c25.2,0,46.1,23.2,46.1,23.2L139.6,43c0,0-12.4-15.6-26.5-15.6c-8.5,0-14.3,3.5-14.3,8.9
		c0,13.7,57.3,20.6,57.3,54.5c0,22.1-21.7,36.5-43.2,36.5C87.7,127.3,66.7,104.2,66.7,104.2z"/>
	<path d="M251,96.6v29.3h-76.7V1.5h29.3v95.1H251z"/>
	<path d="M296.6,30.8v18.3h34.8v29.3h-34.8v18.2h64.1v29.3h-93.4V1.5h93.4v29.3H296.6z"/>
	<path d="M406.3,30.8v18.3h34.8v29.3h-34.8v18.2h64.1v29.3H377V1.5h93.4v29.3H406.3z"/>
	<path d="M486.7,1.5h46.1c30.9,0,49.5,19.1,49.5,42.6c0,23.7-18.5,42.8-49.5,42.8H516v38.9h-29.3V1.5z M532.9,59.5
		c12,0,20.2-6.1,20.2-15.4c0-9.1-8.2-15.2-20.2-15.2H516v30.6H532.9z"/>
</g>
<path d="M43.3,179c-25,18.6-41.6,47.7-43.3,80.7h12.7c1.7-28.6,16.1-53.9,37.7-70.2L43.3,179z M107.6,157.8c-20,0-38.7,5.5-54.7,15
	l7,10.5c14-8.2,30.3-12.9,47.7-12.9c52.4,0,95.1,42.6,95.1,95.1c0,52.4-42.6,95.1-95.1,95.1c-21.1,0-40.6-6.9-56.4-18.6l-9,9
	c18.2,13.9,40.8,22.2,65.4,22.2c59.4,0,107.7-48.3,107.7-107.7C215.3,206.1,167,157.8,107.6,157.8z M12.7,271.2H0
	c1.5,28.4,14,54,33.4,72.4l9-9C25.3,318.5,14.2,296.1,12.7,271.2z"/>
<g>
	<path d="M237.4,200.3h46.1c31,0,49.5,19.1,49.5,42.6c0,15.6-8,29.1-22.2,36.7l22.2,45h-29.3l-19.3-38.9h-17.8v38.9h-29.3V200.3z
		 M283.5,258.3c12,0,20.2-6.1,20.2-15.4c0-9.1-8.2-15.2-20.2-15.2h-16.9v30.6H283.5z"/>
	<path d="M347.5,200.3h46c31.1,0,49.7,17.2,49.7,38.4c0,9.1-3.3,17.2-9.5,23.9c6.1,6.5,9.5,14.6,9.5,23.7
		c0,21.1-18.5,38.4-49.7,38.4h-46V200.3z M393.5,251.1c12.2,0,20.4-4.6,20.4-11.7c0-7-8.2-11.7-20.4-11.7h-16.7v23.4H393.5z
		 M393.5,297.2c12.2,0,20.4-4.6,20.4-11.7c0-6.9-8.2-11.5-20.4-11.5h-16.7v23.2H393.5z"/>
	<path d="M457.6,200.3h29.3v124.4h-29.3V200.3z"/>
	<path d="M595.3,229.6h-32.4v95.1h-29.3v-95.1h-32.4v-29.3h94.1V229.6z"/>
</g>
<g>
	<path d="M47.8,262.6c0-35.2,23.4-63.8,62.3-63.8s62.3,28.5,62.3,63.8c0,35-23.4,63.6-62.3,63.6S47.8,297.6,47.8,262.6z
		 M140.6,262.6c0-21.9-12.2-36.3-30.6-36.3c-18.2,0-30.4,14.5-30.4,36.3c0,21.7,12.2,36.1,30.4,36.1
		C128.4,298.7,140.6,284.3,140.6,262.6z"/>
</g>
</svg>
