<?xml version="1.0" encoding="utf-8"?>
<!-- Generator: Adobe Illustrator 25.0.1, SVG Export Plug-In . SVG Version: 6.00 Build 0)  -->
<svg version="1.1" id="Layer_1" xmlns="http://www.w3.org/2000/svg" xmlns:xlink="http://www.w3.org/1999/xlink" x="0px" y="0px"
	 viewBox="0 0 92.4 57.7" style="enable-background:new 0 0 92.4 57.7;" xml:space="preserve">
<style type="text/css">
	.st0{fill-rule:evenodd;clip-rule:evenodd;fill:#066698;}
	.st1{fill-rule:evenodd;clip-rule:evenodd;fill:#464646;}
	.st2{fill-rule:evenodd;clip-rule:evenodd;fill:#AE1F24;}
	.st3{fill-rule:evenodd;clip-rule:evenodd;fill:#C19C2E;}
	.st4{fill-rule:evenodd;clip-rule:evenodd;fill:#0A7039;}
</style>
<g>
	<path class="st0" d="M15.4,0C6.9,0,0,6.9,0,15.4c0,8.5,6.9,15.4,15.4,15.4c8.5,0,15.4-6.9,15.4-15.4C30.8,6.9,23.9,0,15.4,0z
		 M15.4,25.7c-5.7,0-10.3-4.6-10.3-10.3c0-5.7,4.6-10.3,10.3-10.3c5.7,0,10.3,4.6,10.3,10.3C25.7,21.1,21.1,25.7,15.4,25.7z"/>
	<path class="st1" d="M46.2,0c-8.5,0-15.4,6.9-15.4,15.4c0,8.5,6.9,15.4,15.4,15.4c8.5,0,15.4-6.9,15.4-15.4C61.6,6.9,54.7,0,46.2,0
		z M46.2,25.7c-5.7,0-10.3-4.6-10.3-10.3c0-5.7,4.6-10.3,10.3-10.3c5.7,0,10.3,4.6,10.3,10.3C56.5,21.1,51.9,25.7,46.2,25.7z"/>
	<path class="st2" d="M77,0c-8.5,0-15.4,6.9-15.4,15.4c0,8.5,6.9,15.4,15.4,15.4c8.5,0,15.4-6.9,15.4-15.4C92.4,6.9,85.5,0,77,0z
		 M77,25.7c-5.7,0-10.3-4.6-10.3-10.3c0-5.7,4.6-10.3,10.3-10.3c5.7,0,10.3,4.6,10.3,10.3C87.3,21.1,82.7,25.7,77,25.7z"/>
	<path class="st3" d="M30.8,26.9c-8.5,0-15.4,6.9-15.4,15.4c0,8.5,6.9,15.4,15.4,15.4c8.5,0,15.4-6.9,15.4-15.4
		C46.2,33.8,39.3,26.9,30.8,26.9z M30.8,52.5c-5.7,0-10.3-4.6-10.3-10.3c0-5.7,4.6-10.3,10.3-10.3c5.7,0,10.3,4.6,10.3,10.3
		C41.1,47.9,36.5,52.5,30.8,52.5z"/>
	<path class="st4" d="M61.6,26.9c-8.5,0-15.4,6.9-15.4,15.4c0,8.5,6.9,15.4,15.4,15.4c8.5,0,15.4-6.9,15.4-15.4
		C77,33.8,70.1,26.9,61.6,26.9z M61.6,52.5c-5.7,0-10.3-4.6-10.3-10.3c0-5.7,4.6-10.3,10.3-10.3c5.7,0,10.3,4.6,10.3,10.3
		C71.9,47.9,67.3,52.5,61.6,52.5z"/>
</g>
</svg>
