<?xml version="1.0" encoding="utf-8"?>
<!-- Generator: Adobe Illustrator 25.0.1, SVG Export Plug-In . SVG Version: 6.00 Build 0)  -->
<svg version="1.1" id="Layer_1" xmlns="http://www.w3.org/2000/svg" xmlns:xlink="http://www.w3.org/1999/xlink" x="0px" y="0px"
	 viewBox="0 0 364 236.8" style="enable-background:new 0 0 364 236.8;" xml:space="preserve">
<style type="text/css">
	.st0{fill:#30242C;}
	.st1{fill:#75BB73;}
</style>
<g>
	<path class="st0" d="M181.9,236.8c-37.7,0-75.5,0.1-113.2,0c-27.9-0.1-49.5-12-61.5-37.4c-14.1-29.8-8.4-72.1,26.7-90.6
		c4.6-2.4,9.3-4.5,14.4-5.4c3.6-0.6,5.3-2.3,6.1-6c7.8-34.8,34-58.7,69.2-63.1c10-1.3,19.9-0.8,29.7,1.5c2.9,0.7,4.5-0.1,6.3-2.4
		c21.2-27.8,53.1-39.2,85.5-30.8c32.7,8.5,56.8,35.8,61.5,69.8c1.1,7.8,0.5,15.6,0.4,23.4c0,4,1.2,5.9,5.4,6.7
		c30.4,5.6,51,31,51.5,62.1c0.3,18-3.4,34.3-15.2,48.3c-13.9,16.5-31.8,23.9-53.2,23.8C257.7,236.8,219.8,236.8,181.9,236.8z
		 M182,195.2c3.2,0,6.3,0.1,9.5,0c6-0.2,10.2-3.5,9.5-9.1c-1.8-13.6,2.7-24.3,12.5-33.2c0.5-0.4,0.8-1.1,1.2-1.6
		c10.7-16.1,8.7-37.8-4.7-51.4c-13.2-13.5-32.7-15.9-48.3-6c-16.2,10.3-22.9,31.1-15.9,49.5c2.7,7.2,7.6,12.8,12.7,18.3
		c3.6,3.9,5.5,8,5,13.5c-0.4,3.6-0.2,7.3,0,11c0.3,5.6,3.6,8.8,9.2,9.1C175.7,195.3,178.8,195.2,182,195.2z"/>
	<path class="st1" d="M182,195.2c-3.2,0-6.3,0.1-9.5,0c-5.6-0.3-8.9-3.5-9.2-9.1c-0.2-3.6-0.4-7.3,0-11c0.6-5.4-1.4-9.6-5-13.5
		c-5.1-5.5-10-11.1-12.7-18.3c-6.9-18.4-0.3-39.2,15.9-49.5c15.6-9.9,35.1-7.5,48.3,6c13.4,13.7,15.3,35.3,4.7,51.4
		c-0.4,0.6-0.7,1.2-1.2,1.6c-9.8,9-14.3,19.7-12.5,33.2c0.7,5.7-3.5,8.9-9.5,9.1C188.3,195.3,185.1,195.2,182,195.2z M185.7,154.5
		c0,2-0.1,3.2,0,4.4c0.2,1.8-1,4.7,1.7,5.1c3.1,0.4,6.6,1.7,9.3-1.5c3.6-4.4,7.3-8.7,10.8-13.1c8.9-11,9.6-27.6,1.8-39.7
		c-7.7-12-21.4-17.5-35-14c-22.8,5.7-32.2,35.2-17.1,53.9c3.1,3.9,6.9,7.3,9.5,11.5c2.7,4.4,6.6,3.5,10.1,2.9c3.5-0.6,1.6-4.1,2-6.3
		c0.2-1.5-0.1-3,0.1-4.5c0.4-3.8-0.5-6.3-4.6-7.4c-2.7-0.7-5-2.7-6.8-4.9c-1.8-2.1-4.6-4.7-3.5-7.2c1.1-2.6,4.8-1.2,7.3-1.4
		c4.7-0.5,8.8,5.3,11.2,4.5c3.7-1.3,6.9-4.8,11.4-5c2.5-0.1,5.9-0.5,7,1.4c1.4,2.4-1.3,4.8-2.9,6.9c-1.6,2.1-3.6,4.3-6.2,4.9
		C185.7,146.4,184.8,150.3,185.7,154.5z M182.1,188.2c12.4,0,12.4,0,12.1-12.5c0-0.3,0-0.7,0-1c0.3-2.6-0.9-3.5-3.4-3.5
		c-5.3,0.1-10.6,0.3-15.9-0.1c-3.9-0.2-4.7,1.3-4.7,4.9C170.1,188.2,170,188.2,182.1,188.2z"/>
	<path class="st0" d="M185.7,154.5c-0.9-4.3,0-8.2,6-9.6c2.5-0.6,4.6-2.7,6.2-4.9c1.6-2.1,4.3-4.5,2.9-6.9c-1.1-1.9-4.5-1.5-7-1.4
		c-4.5,0.2-7.7,3.8-11.4,5c-2.4,0.8-6.4-4.9-11.2-4.5c-2.5,0.2-6.2-1.2-7.3,1.4c-1.1,2.6,1.7,5.1,3.5,7.2c1.8,2.2,4.1,4.1,6.8,4.9
		c4.1,1.1,5.1,3.6,4.6,7.4c-0.2,1.5,0.2,3-0.1,4.5c-0.4,2.2,1.5,5.7-2,6.3c-3.5,0.6-7.4,1.4-10.1-2.9c-2.6-4.2-6.4-7.6-9.5-11.5
		c-15-18.7-5.7-48.2,17.1-53.9c13.7-3.4,27.4,2.1,35,14c7.8,12.1,7,28.7-1.8,39.7c-3.5,4.4-7.2,8.7-10.8,13.1
		c-2.6,3.2-6.2,1.9-9.3,1.5c-2.6-0.3-1.4-3.2-1.7-5.1C185.6,157.8,185.7,156.6,185.7,154.5z"/>
	<path class="st0" d="M182.1,188.2c-12.1,0-12,0-11.9-12.2c0-3.6,0.8-5.1,4.7-4.9c5.3,0.3,10.6,0.2,15.9,0.1
		c2.6-0.1,3.7,0.9,3.4,3.5c0,0.3,0,0.7,0,1C194.5,188.2,194.5,188.2,182.1,188.2z"/>
</g>
</svg>
